
<!-- Generator: visioncortex VTracer 0.6.4 -->
<svg version="1.1" xmlns="http://www.w3.org/2000/svg" viewBox="0 0 412 122" preserveAspectRatio="xMidYMid meet">
<path d="M0 0 C135.96 0 271.92 0 412 0 C412 40.26 412 80.52 412 122 C276.04 122 140.08 122 0 122 C0 81.74 0 41.48 0 0 Z " fill="#FEFEFE" transform="translate(0,0)"/>
<path d="M0 0 C2.97 0 5.94 0 9 0 C9 3.3 9 6.6 9 10 C9.817 9.984 10.634 9.969 11.475 9.952 C15.192 9.89 18.908 9.851 22.625 9.812 C24.553 9.775 24.553 9.775 26.52 9.736 C28.385 9.722 28.385 9.722 30.289 9.707 C32.002 9.683 32.002 9.683 33.749 9.659 C38.113 10.117 41.493 11.559 44.68 14.605 C45.786 16.07 46.893 17.535 48 19 C48.33 16.03 48.66 13.06 49 10 C51.97 10 54.94 10 58 10 C58.33 10.99 58.66 11.98 59 13 C60.392 12.041 60.392 12.041 61.812 11.062 C66.854 7.8 71.133 7.293 77 8 C80.141 9.085 83.065 10.446 86 12 C85.211 15.836 85.211 15.836 83.312 17.312 C80.278 18.215 78.051 17.693 75 17 C75 18.32 75 19.64 75 21 C76.031 21.364 76.031 21.364 77.082 21.734 C78.434 22.237 78.434 22.237 79.812 22.75 C80.706 23.075 81.599 23.4 82.52 23.734 C85.299 25.153 86.448 26.315 88 29 C88.409 32.749 88.306 35.252 86.875 38.75 C84.043 42.148 81.257 43.663 76.855 44.32 C71.08 44.615 67.744 43.23 63 40 C63.812 37.563 63.812 37.563 65 35 C65.99 34.67 66.98 34.34 68 34 C68.99 34.66 69.98 35.32 71 36 C74.125 36.167 74.125 36.167 77 36 C77.33 34.68 77.66 33.36 78 32 C77.229 31.602 76.458 31.203 75.664 30.793 C74.661 30.263 73.658 29.733 72.625 29.188 C71.128 28.404 71.128 28.404 69.602 27.605 C67 26 67 26 65 23 C64.875 20.312 64.875 20.312 65 18 C61.274 19.119 61.274 19.119 59 22 C58.848 23.593 58.751 25.191 58.684 26.789 C58.642 27.73 58.6 28.671 58.557 29.641 C58.517 30.625 58.478 31.61 58.438 32.625 C58.373 34.114 58.373 34.114 58.307 35.633 C58.2 38.088 58.098 40.544 58 43 C55.03 43 52.06 43 49 43 C48.67 40.36 48.34 37.72 48 35 C47.299 35.928 46.597 36.856 45.875 37.812 C42.689 41.566 39.701 43.673 34.676 44.281 C28.424 44.511 22.228 43.939 17.43 39.57 C13.692 35.277 12.86 31.984 12.875 26.438 C12.872 25.467 12.87 24.496 12.867 23.496 C13 21 13 21 14 19 C12.35 19 10.7 19 9 19 C9 26.92 9 34.84 9 43 C6.03 43 3.06 43 0 43 C0 34.75 0 26.5 0 18 C-1.32 18 -2.64 18 -4 18 C-4 26.25 -4 34.5 -4 43 C-6.97 43 -9.94 43 -13 43 C-13.33 42.01 -13.66 41.02 -14 40 C-14.433 40.474 -14.866 40.949 -15.312 41.438 C-18.34 44.241 -21.794 44.403 -25.805 44.344 C-30.99 43.532 -34.792 40.51 -38 36.5 C-39.548 31.082 -40.601 23.202 -38 18 C-41.726 19.119 -41.726 19.119 -44 22 C-44.152 23.593 -44.249 25.191 -44.316 26.789 C-44.358 27.73 -44.4 28.671 -44.443 29.641 C-44.483 30.625 -44.522 31.61 -44.562 32.625 C-44.627 34.114 -44.627 34.114 -44.693 35.633 C-44.8 38.088 -44.902 40.544 -45 43 C-47.97 43 -50.94 43 -54 43 C-54.33 41.02 -54.66 39.04 -55 37 C-55.743 37.784 -56.485 38.567 -57.25 39.375 C-62.037 43.945 -65.671 44.495 -72.168 44.391 C-76.533 43.788 -79.733 41.907 -83 39 C-83.66 38.01 -84.32 37.02 -85 36 C-85.33 38.31 -85.66 40.62 -86 43 C-88.97 43 -91.94 43 -95 43 C-95.03 42.016 -95.03 42.016 -95.06 41.012 C-95.155 38.049 -95.265 35.087 -95.375 32.125 C-95.406 31.092 -95.437 30.06 -95.469 28.996 C-95.507 28.01 -95.546 27.024 -95.586 26.008 C-95.617 25.097 -95.649 24.185 -95.681 23.247 C-95.799 20.801 -95.799 20.801 -98 19 C-101.5 18.583 -101.5 18.583 -105 19 C-107.123 22.184 -107.28 23.205 -107.414 26.887 C-107.453 27.825 -107.491 28.762 -107.531 29.729 C-107.562 30.705 -107.593 31.681 -107.625 32.688 C-107.664 33.676 -107.702 34.664 -107.742 35.682 C-107.836 38.121 -107.919 40.56 -108 43 C-110.97 43 -113.94 43 -117 43 C-117.495 40.03 -117.495 40.03 -118 37 C-118.743 37.784 -119.485 38.567 -120.25 39.375 C-125.037 43.945 -128.671 44.495 -135.168 44.391 C-139.533 43.788 -142.733 41.907 -146 39 C-146.66 38.01 -147.32 37.02 -148 36 C-148.014 36.846 -148.028 37.691 -148.043 38.562 C-148.349 45.843 -148.864 51.542 -154 57 C-159.092 60.88 -164.856 60.652 -171 60 C-176.042 58.804 -179.259 56.428 -182 52 C-182.75 49.188 -182.75 49.188 -183 47 C-179.966 46.767 -177.027 46.641 -174 47 C-172.646 48.313 -171.312 49.646 -170 51 C-166.492 51.683 -163.22 51.648 -160 49.938 C-158.473 46.979 -158.815 44.263 -159 41 C-159.825 41.495 -160.65 41.99 -161.5 42.5 C-165.583 44.25 -168.629 44.787 -173 44 C-177.628 41.597 -181.952 38.311 -183.586 33.148 C-184.646 27.65 -184.841 22.682 -182.312 17.625 C-178.405 13.19 -175.238 10.149 -169.25 9.75 C-165.219 9.779 -162.479 10.913 -159 13 C-158.67 12.01 -158.34 11.02 -158 10 C-155.03 10 -152.06 10 -149 10 C-148.505 13.96 -148.505 13.96 -148 18 C-147.484 17.237 -146.969 16.474 -146.438 15.688 C-142.922 11.811 -139.607 10.339 -134.535 9.68 C-128.839 9.423 -125.426 10.114 -121 14 C-119.125 16.25 -119.125 16.25 -118 18 C-117.67 15.36 -117.34 12.72 -117 10 C-114.03 10 -111.06 10 -108 10 C-107.505 11.485 -107.505 11.485 -107 13 C-106.01 12.258 -106.01 12.258 -105 11.5 C-101.261 9.63 -98.068 9.274 -94 10 C-90.056 12.084 -87.413 14.247 -85 18 C-83.948 16.577 -83.948 16.577 -82.875 15.125 C-80.215 11.965 -78.133 10.81 -74 10 C-68.12 9.533 -64.276 10.057 -59 13 C-56.563 15.687 -56.563 15.687 -55 18 C-54.67 15.36 -54.34 12.72 -54 10 C-51.03 10 -48.06 10 -45 10 C-44.67 10.99 -44.34 11.98 -44 13 C-42.886 12.361 -41.773 11.721 -40.625 11.062 C-35.196 7.946 -31.311 7.335 -25 8 C-16.407 10.593 -16.407 10.593 -14 13 C-13.67 12.01 -13.34 11.02 -13 10 C-8.71 10 -4.42 10 0 10 C0 6.7 0 3.4 0 0 Z " fill="#242424" transform="translate(227,31)"/>
<path d="M0 0 C2.753 1.796 4.526 3.053 6 6 C6.43 9.872 6.317 11.525 4.125 14.812 C1.421 17.596 0.577 17.935 -3.312 18.375 C-7 18 -7 18 -9.938 16 C-12.231 12.664 -12.758 10.9 -12.48 6.938 C-10.873 0.454 -5.981 -0.961 0 0 Z " fill="#F9F9F9" transform="translate(209,49)"/>
<path d="M0 0 C3.188 0.272 4.201 0.822 7 2.688 C9.219 6.016 9.759 7.827 9.477 11.75 C8.603 15.302 6.984 16.698 4 18.688 C1.137 19.444 -1.146 19.499 -4 18.688 C-7.259 15.836 -8.739 13.938 -9.625 9.688 C-8.494 4.257 -5.746 0.381 0 0 Z " fill="#F9F9F9" transform="translate(61,48.3125)"/>
<path d="M0 0 C0 0.66 0 1.32 0 2 C1.65 1.34 3.3 0.68 5 0 C7.062 2.125 7.062 2.125 9 5 C8.937 8.155 8.489 10.138 6.938 12.875 C3.761 14.719 0.571 14.521 -3 14 C-5 13 -5 13 -6 11 C-6.536 7.323 -6.768 4.171 -4.688 1 C-3 0 -3 0 0 0 Z " fill="#222222" transform="translate(257,51)"/>
<path d="M0 0 C7.92 0 15.84 0 24 0 C24 1.98 24 3.96 24 6 C22.762 5.938 21.525 5.876 20.25 5.812 C16.384 5.792 15.048 6.64 12 9 C8.037 9.495 5.924 9.657 2.625 7.312 C1 5 1 5 0 0 Z " fill="#E8E8E8" transform="translate(149,59)"/>
<path d="M0 0 C7.92 0 15.84 0 24 0 C24 1.98 24 3.96 24 6 C22.763 5.938 21.525 5.876 20.25 5.812 C16.384 5.792 15.048 6.64 12 9 C8.562 9.562 8.562 9.562 5 9 C2.715 7.183 1.628 5.516 0 3 C0 2.01 0 1.02 0 0 Z " fill="#EAEAEA" transform="translate(86,59)"/>
<path d="M0 0 C0.66 0 1.32 0 2 0 C2 2.31 2 4.62 2 7 C1.34 7 0.68 7 0 7 C0 6.34 0 5.68 0 5 C-2.645 5.918 -2.645 5.918 -5 8 C-5.608 10.885 -5.334 12.998 -5 16 C-3.003 18.421 -3.003 18.421 0.938 18.375 C3.85 18.29 4.715 18.225 7.062 16.375 C8.345 13.127 8.055 11.307 7 8 C5.023 6.246 5.023 6.246 3 5 C3 4.34 3 3.68 3 3 C6.653 4.25 7.781 4.671 10 8 C10.549 12.866 10.735 14.898 8 19 C4.671 21.219 2.861 21.759 -1.062 21.477 C-4.615 20.603 -6.011 18.984 -8 16 C-8.697 13.165 -8.725 10.831 -8 8 C-5.688 5 -5.688 5 -3 3 C-2.01 3 -1.02 3 0 3 C0 2.01 0 1.02 0 0 Z " fill="#D1D1D1" transform="translate(257,46)"/>
<path d="M0 0 C1.938 1.375 1.938 1.375 3 3 C3 3.99 3 4.98 3 6 C-1.95 6 -6.9 6 -12 6 C-11 2 -11 2 -9.375 0.188 C-5.922 -1.539 -3.675 -0.935 0 0 Z " fill="#EFEFEF" transform="translate(99,48)"/>
<path d="M0 0 C1.938 1.938 1.938 1.938 3 4 C3 4.66 3 5.32 3 6 C-1.95 6 -6.9 6 -12 6 C-11 2 -11 2 -9.375 0.188 C-5.894 -1.553 -3.693 -1.007 0 0 Z " fill="#EFEFEF" transform="translate(162,48)"/>
<path d="M0 0 C0.66 0 1.32 0 2 0 C2 2.31 2 4.62 2 7 C1.34 7 0.68 7 0 7 C0 6.34 0 5.68 0 5 C-3.536 6.675 -4.791 7.493 -6.312 11.188 C-6.539 12.116 -6.766 13.044 -7 14 C-7.33 14 -7.66 14 -8 14 C-8.312 11.312 -8.312 11.312 -8 8 C-5.688 5.125 -5.688 5.125 -3 3 C-2.01 3 -1.02 3 0 3 C0 2.01 0 1.02 0 0 Z " fill="#DADADA" transform="translate(257,46)"/>
<path d="M0 0 C3.653 1.25 4.781 1.671 7 5 C7.258 7.695 7.089 10.285 7 13 C6.01 13 5.02 13 4 13 C4.402 11.67 4.402 11.67 4.812 10.312 C5.401 6.802 5.401 6.802 2.562 4.25 C1.717 3.508 0.871 2.765 0 2 C0 1.34 0 0.68 0 0 Z " fill="#E0E0E0" transform="translate(260,49)"/>
</svg>